<svg fill="#000000" xmlns="http://www.w3.org/2000/svg"  viewBox="0 0 50 50" width="50px" height="50px"><path fill="none" stroke="#000000" stroke-miterlimit="10" stroke-width="2" d="M38,48H12c-0.6,0-1-0.4-1-1V3c0-0.6,0.4-1,1-1h26c0.6,0,1,0.4,1,1v44C39,47.6,38.6,48,38,48z"/><path fill="none" stroke="#000000" stroke-miterlimit="10" stroke-width="2" d="M15 6H35V28H15zM32 36H18c-1.7 0-3 1.3-3 3v2c0 1.7 1.3 3 3 3h14c1.7 0 3-1.3 3-3v-2C35 37.3 33.7 36 32 36zM35 40L15 40M29 36L29 44M21 36L21 44"/><path d="M25 30A2 2 0 1 0 25 34A2 2 0 1 0 25 30Z"/></svg>